<svg width="420" height="140" viewBox="0 0 420 140" fill="none" xmlns="http://www.w3.org/2000/svg">
  <rect width="420" height="140" rx="28" fill="none"/>
  <g transform="translate(12 10)">
    <path d="M54 22C49.4 22 44.8 22.8 40.7 24.6C28.7 29.9 20 42.8 20 58C20 83.7 41.3 104 67 104C89.9 104 108.8 87 113.3 65.4C114.2 61 110.8 57 106.3 57H85.4C81.8 57 78.7 59.5 77.8 63C76.5 67.9 72.1 71.5 67 71.5C60.7 71.5 55.5 66.3 55.5 60C55.5 53.7 60.7 48.5 67 48.5C72.2 48.5 76.7 52.1 78 57.1C78.9 60.6 82 63 85.6 63H106.6C111.1 63 114.5 59 113.6 54.6C109.2 33.8 90.9 22 54 22Z" fill="#FFBF1F"/>
    <circle cx="67" cy="60" r="17" fill="#F44A2B"/>
    <path d="M82 4H51C49.6 4 48.5 5.3 48.8 6.6C50.6 15.1 58.1 21.5 67 21.5C75.9 21.5 83.4 15.1 85.2 6.6C85.5 5.3 84.4 4 83 4H82Z" fill="#8B5E3C"/>
    <path d="M53.4 2.4C46.5-0.5 38.5 0.9 33 5.9C42.1 7 49 10.9 53.7 17.3C56.4 10.5 57.2 4 53.4 2.4Z" fill="#1F9B4D"/>
    <path d="M81 2.4C87.9-0.5 95.9 0.9 101.4 5.9C92.3 7 85.4 10.9 80.7 17.3C78 10.5 77.2 4 81 2.4Z" fill="#1F9B4D"/>
    <path d="M54 14.7C58.8 13.9 63 16 67 21.3C63.8 14.4 59.5 11.6 54 14.7Z" fill="#CFEAC8"/>
    <path d="M80.4 14.7C75.6 13.9 71.4 16 67.4 21.3C70.6 14.4 74.9 11.6 80.4 14.7Z" fill="#CFEAC8"/>
  </g>
  <g fill="#D8FCCA">
    <text x="138" y="58" font-family="Arial, Helvetica, sans-serif" font-size="36" font-weight="700" letter-spacing="0">Vill Farm Fresh</text>
  </g>
  <g fill="#7FCB5B">
    <text x="140" y="95" font-family="Brush Script MT, Segoe Script, cursive" font-size="34" font-style="italic">Premium Veggie Store</text>
  </g>
</svg>
